<svg id="Layer_2" data-name="Layer 2" xmlns="http://www.w3.org/2000/svg" viewBox="0 0 1000 1000"><defs><style>.cls-1{fill:#3fbdf1;}.cls-2{fill:#353642;}.cls-3{fill:#d7e8f0;}.cls-4,.cls-7,.cls-8,.cls-9{fill:none;}.cls-4,.cls-8,.cls-9{stroke:#000;stroke-miterlimit:10;}.cls-4{stroke-width:4.13px;}.cls-5{fill:#fff;}.cls-6{opacity:0.68;}.cls-8{stroke-width:3.77px;}.cls-9{stroke-width:3.84px;}</style></defs><path class="cls-1" d="M648.2,205.94a38.9,38.9,0,0,1,20.65-6.21c1.27,0,2.51.07,3.73.18-.52-2.18-1.17-4.74-2-7.52a18.89,18.89,0,0,1-10.13-13.57,17,17,0,0,1-2.85.25,17.55,17.55,0,0,1-9.6-2.82,18.11,18.11,0,0,1-2.07-.58,16.36,16.36,0,0,1-2.71.25,17.58,17.58,0,0,1-12.38-5l-8.67,3S644.41,185.14,648.2,205.94Z"/><path class="cls-1" d="M650.79,857.21a60.17,60.17,0,0,1-60.14,60.15H304.35a60.17,60.17,0,0,1-60.15-60.15V232.46a60.16,60.16,0,0,1,60.15-60.2h38.26a26,26,0,0,1,18.36,7.6,25.63,25.63,0,0,1,7.52,16.65,13.88,13.88,0,0,1,.08,1.57c0,.45,0,.89,0,1.33v0a27.15,27.15,0,0,0,2.9,10.95c.05.08.08.19.13.27a24.88,24.88,0,0,0,22.25,13.57H500.42a25.93,25.93,0,0,0,18.39-7.61,24.78,24.78,0,0,0,4.57-6.29.38.38,0,0,0,.11-.16,25,25,0,0,0,2.87-10.78l0,0c0-.33,0-.63,0-1,.08-14.31,11-26.13,25.33-26.13H584l34-.42c.69-6.5,3.46-13.34,6.32-19.38a41,41,0,0,1,3.37-6H306.8a78.88,78.88,0,0,0-78.89,78.89V871.11A78.87,78.87,0,0,0,306.8,950H596.9a78.89,78.89,0,0,0,78.9-78.89V826.64l-25,14.25Z"/><path class="cls-1" d="M659.51,362.17c-3-3.09-5.9,1.71-8.72-1.57V598.23a158.13,158.13,0,0,1,6.51-19.07c.58-1.36,1.16-2.73,1.76-4.08,1.27-2.79,2.6-5.54,4-8.27.38-.78.77-1.52,1.18-2.26s.91-1.69,1.38-2.49c.8-1.46,1.66-2.92,2.54-4.35.6-1.08,1.27-2.12,1.93-3.17.49-.83,1-1.63,1.54-2.4.58-.94,1.21-1.87,1.82-2.78.75-1.13,1.54-2.26,2.32-3.37V376.72c-3-2.34-6-4.8-8.82-7.33C664.38,367.07,661.9,364.67,659.51,362.17Z"/><path class="cls-1" d="M673.41,197c-3.46,4.36-7.75.7-13.33.7-5.08,0-8,8.22-11.22,4.91.18.44-1.63,7-1.48,7.44.49,1.32.93,2.7,1.32,4.08v.05c.5,1.77.88,3.53,1.21,5.35.08.41.17.86.22,1.3.14.93.28,1.9.36,2.86a26.4,26.4,0,0,1,.19,2.68c.09,1,.11,2.09.11,3.17v70a8.34,8.34,0,0,1,2,2.45c4,7.3,7.83,1.83,12.11,9,2.28,3.7,7,6.59,9.42,3.91.89-1,1.44-5.28,1.44-6.88V223.44a81.64,81.64,0,0,0-.89-12C674.69,209.93,673.73,198.53,673.41,197Z"/><path class="cls-1" d="M368.6,196.71a24.4,24.4,0,0,1,2.9,10.94A27.14,27.14,0,0,1,368.6,196.71Z"/><path class="cls-1" d="M526.36,196.65a25,25,0,0,1-2.87,10.78A26.91,26.91,0,0,1,526.36,196.65Z"/><path class="cls-2" d="M909.19,501.76c-95.54,29.83-144.93-43.23-144.93-43.23,3.61-5.35-1.85-15.41-1.85-15.41l-3.32-17c-42.21-2.07-80.4-43.21-80.4-43.21,54.61-9.68,31.07-42.39,31.07-42.39L747.41,370l4.08-.36c.5-51,32.61-74.82,42.67-82.89s11.78-.06,11.78-.06-4.42,16.32,14.44,18.58,32.67-15.41,32.67-15.41c6.47-14.5,13.92-5.51,13.92-5.51,32.33,17.2,38.18,59.76,45.12,89.5,4.79,20.38,13.91,64.3,20,85.7A34.3,34.3,0,0,1,930.88,482h0A34.54,34.54,0,0,1,909.19,501.76Z"/><path class="cls-2" d="M909.19,501.76c-95.54,29.83-144.93-43.23-144.93-43.23,3.61-5.35-1.85-15.41-1.85-15.41l-3.32-17c-42.21-2.07-80.4-43.21-80.4-43.21,36.18-18.09,31.07-42.39,31.07-42.39L747.41,370l4.08-.36c.5-51,32.61-74.82,42.67-82.89s11.78-.06,11.78-.06-4.42,16.32,14.44,18.58,32.67-15.41,32.67-15.41c6.47-14.5,13.92-5.51,13.92-5.51,32.33,17.2,38.18,59.76,45.12,89.5,4.79,20.38,13.91,64.3,20,85.7A34.3,34.3,0,0,1,930.88,482h0A34.54,34.54,0,0,1,909.19,501.76Z"/><circle class="cls-3" cx="796.58" cy="233.41" r="10.81"/><path class="cls-4" d="M811.31,255.18c-.94,6.92-6.81,11.44-12.93,10.44"/><path class="cls-1" d="M738.85,194.9v0a23,23,0,0,0,19.95,17.95,12.19,12.19,0,0,1,2.62-5.21c5.46-6.21,7.53,5.67,24.81-2.48,24-11.33,32.83-4.39,32.83-4.39.78.61.58,6.07.67,7,.52,5.65,1,11.28,1.59,16.93.34,3.44.67,6.86,1,10.28a17.52,17.52,0,0,1,1.1-1.65c2.32-7.61,8.77-16.52,17-12.46a11.85,11.85,0,0,1,4.22,3.61c5.37,7.36,1,14.28-4.83,19.35a30,30,0,0,1-4.91,4.22c.91,2,4.64,9.86,4.64,9.89.38.8,14.25-14.28,15.29-15.93a38.75,38.75,0,0,0,2.65-12.74c.58-17.94-6.31-39-20.65-49.56-3.55-2.62-4.79-5.1-5-8.57a.93.93,0,0,0-1.65-.53c-4.66,5.16-15.93,4.41-15.93,4.41-39-10.58-52.46,6.56-60.4,9.49a14.87,14.87,0,0,1-10,0,6,6,0,0,1-4.19,4.6l.17,1.82A6.06,6.06,0,0,1,738.85,194.9Z"/><path class="cls-4" d="M822.53,268.39c-2.57,2-9.75,7.76-12.62,9.47a42.63,42.63,0,0,1-6.61,3.25c-17.26,6.51-33.44-8.29-39.37-23.1-4.88-12.21-6-25.85-5.65-38.89.06-1.35.11-2.73.22-4.11a.74.74,0,0,1,0-.25,14.53,14.53,0,0,1,.28-1.87,12.08,12.08,0,0,1,2.62-5.21c5.45-6.2,7.52,5.68,24.8-2.48,24-11.33,32.84-4.39,32.84-4.39.77.61.57,6.07.66,7,.52,5.66,1,11.28,1.6,16.93.33,3.45.66,6.86,1,10.28v0c.08.94.17,1.85.25,2.78a21.05,21.05,0,0,1,.85-4.46c2.32-7.61,8.77-16.51,17-12.46a11.85,11.85,0,0,1,4.22,3.61c5.37,7.36,1,14.28-4.83,19.35a43.8,43.8,0,0,1-4.68,3.5l-.44.28.22.44c.91,2,4.63,9.87,4.63,9.89.38.8,14.25-14.27,15.3-15.93a42.75,42.75,0,0,0,6.61-18.52c.09-.83.14-1.63.17-2.46.58-17.94-6.31-39-20.65-49.56-3.56-2.62-4.8-5.1-5-8.57a.93.93,0,0,0-1.65-.53c-4.66,5.16-15.94,4.41-15.94,4.41-38.95-10.58-52.46,6.56-60.39,9.49s-14.89-2.48-14.89-2.48l.83,8.87a6.08,6.08,0,0,1-.11,1.82,6,6,0,0,1-4.19,4.6,4.21,4.21,0,0,1-1.24.25l-.31,0a31,31,0,0,0,.72,5.49v0a23,23,0,0,0,20,17.95h0"/><circle class="cls-3" cx="764.27" cy="232.35" r="10.81"/><path d="M801.09,237.45a4.44,4.44,0,1,1-4.44-4.41,3.79,3.79,0,0,1,1.27.19,2.22,2.22,0,0,0-.69,1.57,2.15,2.15,0,0,0,2.15,2.13,2.08,2.08,0,0,0,1.52-.67A3.58,3.58,0,0,1,801.09,237.45Z"/><path d="M769.66,236a4.42,4.42,0,1,1-4.43-4.43,4.3,4.3,0,0,1,1.68.33,2.24,2.24,0,0,0-1,1.82,2.13,2.13,0,0,0,2.15,2.12,2.06,2.06,0,0,0,1.49-.61A3.25,3.25,0,0,1,769.66,236Z"/><path class="cls-4" d="M780.63,233.24s-2.77,12.31-3.1,13.55c-1,4,6.94,2.76,6.94,2.76"/><path class="cls-4" d="M790.79,210s13.05-4.89,20.31,4.91"/><path class="cls-4" d="M747.41,219.79s6.72-12.21,18.6-9.5"/><circle class="cls-4" cx="796.58" cy="233.41" r="12.77"/><circle class="cls-4" cx="764.27" cy="232.35" r="12.77"/><path class="cls-5" d="M764.26,223.67h.29a8.67,8.67,0,0,1-.28,17.34H764a8.67,8.67,0,0,1,.28-17.34m0-2.07a10.74,10.74,0,0,0-.35,21.48h.36a10.74,10.74,0,0,0,.35-21.48Z"/><line class="cls-4" x1="783.81" y1="232.99" x2="777.03" y2="232.77"/><path class="cls-1" d="M793.39,690.49l-13.56,83.06-14.69-2.2a12.26,12.26,0,0,1-10.23-13.84L756,748.6v0l10-73.3C782.28,684.84,793.39,690.49,793.39,690.49Z"/><path class="cls-1" d="M726.3,797.84l-50.5,29-25,14.39-7.66,4.41a2.17,2.17,0,0,0,0-.44l-6,3.42-7.72-14.83A14.72,14.72,0,0,1,635.41,814l87.5-47.91.08.8Z"/><path class="cls-4" d="M652.45,592.58c-.55-.74-1.1-1.46-1.66-2.09-3.17-3.81-6.28-6.37-8.38-10.7a18,18,0,0,1,4.33-21.2,17.46,17.46,0,0,1,4-2.59"/><path class="cls-4" d="M758.94,725.81,756,748.58v0l-1.13,8.91a12.26,12.26,0,0,0,10.23,13.84l14.69,2.2,13.56-83.06s-11.11-5.65-27.37-15.21c-11.63-6.84-26-15.69-40.74-25.89"/><path class="cls-4" d="M756.44,745.48s-15.86-8.55-36-20.86"/><g class="cls-6"><path class="cls-3" d="M650.79,361.87V598.23c-4.38,16.18-6.47,33-7.58,49.92V362.47C645.67,365.67,648.2,358.81,650.79,361.87Z"/><path class="cls-3" d="M650.79,840.89v13.59a60.17,60.17,0,0,1-60.14,60.15H304.35a60.17,60.17,0,0,1-60.15-60.15V229.73a60.16,60.16,0,0,1,60.15-60.2h38.26a27.36,27.36,0,0,1,5.23.52,28,28,0,0,1,3.4.94c.49.19,1,.38,1.46.58a22.72,22.72,0,0,1,2.28,1.1,24.45,24.45,0,0,1,2.57,1.6c.55.38,1.07.77,1.57,1.18s1.27,1.11,1.85,1.68l4,5.16a20.06,20.06,0,0,1,1,1.9l1.46,3.69c.2.67.39,1.33.53,2l.36,2.09c.05.28.08.58.11.86a2.75,2.75,0,0,1,0,.41c.06.66.11,1.3.11,2v.27c0,.42,0,.8,0,1.19a.55.55,0,0,0-.11-.17,23.57,23.57,0,0,0-4.3-5.79,25,25,0,0,0-17.67-7.33H309.67a57.92,57.92,0,0,0-57.89,58V842.85a57.92,57.92,0,0,0,57.89,57.92H585.33a57.88,57.88,0,0,0,57.8-55.08,2.17,2.17,0,0,0,0-.44Z"/><path class="cls-3" d="M523.49,207.43c0,.38,0,.74,0,1.13a25,25,0,0,1-25,24.86H395.86c-13.83,0-24.28-11.3-24.34-25.14,0-.22,0-.41,0-.63a24.89,24.89,0,0,0,22.38,13.84H500.42a25.93,25.93,0,0,0,18.39-7.61A25.52,25.52,0,0,0,523.49,207.43Z"/></g><path class="cls-4" d="M675.8,463.93c35.57-7.23,70.1-14.7,88.46-14.45"/><path class="cls-4" d="M642.17,670c-53.92-43.45-102.85-99.18-81.82-147.73C573,493,610.44,477.05,650.79,468.4"/><path class="cls-4" d="M759.35,428.06c.88,3.17,4.91,21.43,5.9,24.73,3.66,11.91-42.92,43.42-50.81,50.5-14.16,12.63-27.56,26.85-38.64,42.7a172.59,172.59,0,0,0-18.5,33.17,158.13,158.13,0,0,0-6.51,19.07c-4.38,16.18-6.47,33-7.58,49.92-.88,12.82-1.21,25.69-1.57,38.26-.74,24.12-.36,48.38,1.22,72.42.11,1.52.22,3,.35,4.52a261.47,261.47,0,0,0,7.23,42.31v.09"/><path class="cls-4" d="M752.46,371.72c1.51-46.83,22.77-71.83,41.7-85a60.62,60.62,0,0,1,11.78-6.29"/><path class="cls-4" d="M857.9,280.12c.88.33,1.73.69,2.59,1.05l.94.41a60.3,60.3,0,0,1,6.06,3.06,57.34,57.34,0,0,1,17.37,15.27,2.17,2.17,0,0,1,.44.61c.82,1.16,1.62,2.34,2.4,3.56,6.92,11,13.37,25.85,18.3,43a238.65,238.65,0,0,1,6.09,26.77v0"/><path class="cls-4" d="M912.09,373.84c4.79,20.38,13.92,64.31,20,85.7A34.3,34.3,0,0,1,930.88,482h0a34.54,34.54,0,0,1-21.69,19.76l-18.09,4.38a8.42,8.42,0,0,0-4.73,3.14,121.75,121.75,0,0,1-13.61,15.16c-78.26,73.68-172.43-2.59-149.85,241.67l.08.8q1.37,14.67,3.31,30.93l-50.5,28.8-25,14.25-7.63,4.36-6,3.42-7.72-14.83A14.72,14.72,0,0,1,635.41,814l7.8-4.33,7.23-4,.35-.19,25-13.84,5.32-3"/><path class="cls-4" d="M675.81,826.64v41.73a78.92,78.92,0,0,1-78.92,78.91H298.1a78.91,78.91,0,0,1-78.92-78.91V218.12a78.91,78.91,0,0,1,78.92-78.91l335.09,0"/><path class="cls-4" d="M675.8,218.12A79.56,79.56,0,0,0,674.17,202s-1.46-8.83-2.86-11.28"/><polyline class="cls-4" points="675.8 545.96 675.8 463.95 675.8 378.42"/><polyline class="cls-4" points="675.8 218.13 675.8 264.4 675.8 319.35"/><path class="cls-4" d="M756,344v-.07a117.7,117.7,0,0,1-24-14.41,147.81,147.81,0,0,1-56.35-97.35q-.2-1.43-.36-2.88"/><line class="cls-4" x1="650.81" y1="575.23" x2="650.81" y2="361.79"/><path class="cls-4" d="M650.81,301.82V229.74c0-13.13-1.15-28.69-8.22-38.6,0,0-17.15-21.63-34.58-21.63H552.39"/><path class="cls-4" d="M574.8,169.51H552.39a26,26,0,0,0-26,26h0a26,26,0,0,1-26,26H394.57a26,26,0,0,1-26-26h0a26,26,0,0,0-26-26H304.35a60.21,60.21,0,0,0-60.17,60.23V854.48a60.19,60.19,0,0,0,60.17,60.16H590.64a60.19,60.19,0,0,0,60.17-60.16V840.9"/><path class="cls-4" d="M669.65,142.92c10.89,4.66,21.06,20.07,26,30.38,9.16,19.13,17.15,33.77,28,52,9.29,15.63,17.81,32.56,32.42,44a48.78,48.78,0,0,0,27,10.47"/><path class="cls-1" d="M374,169.53A119.55,119.55,0,0,1,188.51,269.2,119.52,119.52,0,0,1,331.44,78.09,119.24,119.24,0,0,1,374,169.53Z"/><path class="cls-1" d="M361,170a105.88,105.88,0,0,1-164.28,88.29A105.87,105.87,0,0,1,323.28,89,105.66,105.66,0,0,1,361,170Z"/><path class="cls-3" d="M489.67,430.1l-87.12,13.13a14.31,14.31,0,0,1-17.86-13.86l9.11-74.86H523.73a4,4,0,0,1,4,4l-12.43,46.9A36,36,0,0,1,489.67,430.1Z"/><circle class="cls-3" cx="415.3" cy="473.32" r="14.85"/><circle class="cls-3" cx="471.68" cy="473.32" r="14.85"/><path class="cls-3" d="M405.59,370.2l-13.53-1.81,3.8-28.46a12.34,12.34,0,0,0-12.55-14l-11.66.3a6.83,6.83,0,0,1-7-6.65h0a6.82,6.82,0,0,1,6.64-7l11.67-.3a25.76,25.76,0,0,1,21.2,10,27.1,27.1,0,0,1,5.11,20.32Z"/><rect class="cls-3" x="319.83" y="531.67" width="255.34" height="97.85" rx="21.36"/><path class="cls-1" d="M240.23,687.63c27.6-8,51.28-38.21,18.14-63.21-1.21-.88-2.34-1.68-3.42-2.32a15.39,15.39,0,0,1,14-4.05c.08,0,.19,0,.27.06a1.76,1.76,0,0,1,.5.13c3.61.83,7.64,2.79,12.13,6.18C314.94,649.42,269.18,681.87,240.23,687.63Z"/><path class="cls-5" d="M376.69,554.79a102.49,102.49,0,0,1,16.12-1.14c7.27,0,11.66.53,15.6,2.5a11.37,11.37,0,0,1,6.89,10.52c0,4.24-2.35,8.41-8.33,10.68v.15c6.21,1.74,10,6.36,10,12.42a13.73,13.73,0,0,1-5.76,11.2c-3.79,2.88-10.14,4.55-21,4.55a76.76,76.76,0,0,1-13.47-.91Zm13.55,18.85H393c5.83,0,8.64-2,8.64-5.3,0-3-2.28-4.84-6.89-4.84a26.33,26.33,0,0,0-4.47.3Zm0,21.89a30.35,30.35,0,0,0,3.94.14c4.54,0,8.4-1.82,8.4-6.35,0-4.32-3.94-6-9.09-6h-3.25Z"/><path class="cls-5" d="M438.11,554v29c0,7.72,2.66,12,8,12s8.1-3.94,8.1-12V554H468V582.2c0,15.75-7.88,23.69-22.19,23.69-13.93,0-21.35-7.64-21.35-24V554Z"/><path class="cls-5" d="M489.18,605.06V584.47L473.13,554H488.8l4.31,11.51c1.37,3.56,2.35,6.13,3.49,9.46h.15c1-3.1,2-6,3.26-9.46L504.17,554h15.44l-16.73,29.91v21.12Z"/><path class="cls-3" d="M269,618.05a15.39,15.39,0,0,0-14,4.05c-16.84,15.14-17.61,65.53-17.61,65.53h-4.47s-10.8-58.66,5.21-68.48l.06,0c.27-.11,1.41-.61,3-1.16,0,0,.08,0,.11,0a31.89,31.89,0,0,1,6.39-1.49A66.15,66.15,0,0,1,269,618.05Z"/><path class="cls-4" d="M374,169.53a119.52,119.52,0,1,1-42.54-91.44A119.5,119.5,0,0,1,374,169.53Z"/><path class="cls-3" d="M211.23,789.46v52h-117a10.33,10.33,0,0,1-10.34-10.53l.58-31.29a10.33,10.33,0,0,1,10.34-10.14Z"/><path class="cls-1" d="M396.84,799.79v31.29a10.34,10.34,0,0,1-10.34,10.34H211.23v-52H386.5A10.34,10.34,0,0,1,396.84,799.79Z"/><path class="cls-3" d="M228.85,841.42V947.27H116.74a18.12,18.12,0,0,1-18.08-18v-87.8Z"/><path class="cls-1" d="M376.71,841.42v87.8a18.12,18.12,0,0,1-18.08,18H228.85V841.42Z"/><path class="cls-5" d="M227.88,129.2c13.29,0,20.49,9.64,20.49,21.38,0,14.95-10.19,23-21.15,23-11.75,0-20.72-8.64-20.72-21.71,0-12.29,7.87-22.71,21.27-22.71Zm-.44,10.64c-4.54,0-6.32,5.09-6.32,11.63,0,6.86,2.11,11.52,6.54,11.52,4,0,6.09-3.88,6.09-11.52,0-6.65-1.66-11.63-6.2-11.63Zm1.33,63.8,41-74.21H280l-40.88,74.21Zm53.17-44.53c13.29,0,20.49,9.63,20.49,21.38,0,14.95-10.19,23-21.16,23-11.74,0-20.71-8.64-20.71-21.82,0-12.19,7.86-22.6,21.27-22.6Zm-.45,10.64c-4.54,0-6.31,5.09-6.31,11.63,0,6.86,2.11,11.52,6.54,11.52,4,0,6.09-4,6.09-11.64,0-6.64-1.66-11.51-6.2-11.51Z"/><path class="cls-3" d="M226.4,687.08c-17.87,0-51-14.59-33.47-34.13a20.42,20.42,0,0,1,6.75-5.29l.14-.09.06,0a42,42,0,0,1,13.28-3.7,19.46,19.46,0,0,1,4.44.14c-2.34-.11-5.07,1.16-8.3,4.25-.57.52-1.18,1.18-1.81,1.87C190,669.63,208.34,685.51,226.4,687.08Z"/><path class="cls-1" d="M231,686.19l-2.78.53s-6.62-31.12-18.92-38.48c3.23-3.09,6-4.36,8.3-4.25a.29.29,0,0,0,.14,0l1,.14.35.08C230.56,647.74,231,686.19,231,686.19Z"/><path class="cls-7" d="M228.22,686.72l-1.82.36c-18.06-1.57-36.42-17.45-18.91-37,.63-.69,1.24-1.35,1.81-1.87C221.6,655.6,228.22,686.72,228.22,686.72Z"/><path class="cls-7" d="M199.82,647.57s-.08,0-.14.06"/><path class="cls-4" d="M228.84,789.45h-134A10.34,10.34,0,0,0,84.5,799.61l-.56,31.29a10.34,10.34,0,0,0,10.34,10.53H386.49a10.34,10.34,0,0,0,10.34-10.35V799.79a10.34,10.34,0,0,0-10.34-10.34H193.06"/><path class="cls-4" d="M358.63,947.28H116.73A18.13,18.13,0,0,1,98.66,929.2V841.43h278V929.2A18.14,18.14,0,0,1,358.63,947.28Z"/><path class="cls-1" d="M341.67,694.3v20.18a6.67,6.67,0,0,1-6.67,6.67H221.9V687.63H335A6.67,6.67,0,0,1,341.67,694.3Z"/><path class="cls-3" d="M221.9,687.63v33.52H146.45a6.68,6.68,0,0,1-6.67-6.78l.36-20.21a6.66,6.66,0,0,1,6.67-6.53Z"/><path class="cls-1" d="M328.69,721.15V777.8A11.7,11.7,0,0,1,317,789.46H233.28V721.15Z"/><path class="cls-3" d="M233.28,721.15v68.31H161a11.69,11.69,0,0,1-11.66-11.66V721.15Z"/><line class="cls-4" x1="211.22" y1="789.45" x2="211.22" y2="841.43"/><line class="cls-4" x1="228.84" y1="841.43" x2="228.84" y2="947.28"/><path class="cls-4" d="M341.67,694.3v20.18a6.67,6.67,0,0,1-6.67,6.67H221.9V687.63H335A6.67,6.67,0,0,1,341.67,694.3Z"/><path class="cls-4" d="M221.9,687.63v33.52H146.45a6.68,6.68,0,0,1-6.67-6.78l.36-20.21a6.66,6.66,0,0,1,6.67-6.53Z"/><path class="cls-4" d="M328.69,721.15V777.8A11.7,11.7,0,0,1,317,789.46H233.28V721.15Z"/><path class="cls-4" d="M233.28,721.15v68.31H161a11.69,11.69,0,0,1-11.66-11.66V721.15Z"/><path class="cls-4" d="M245.06,687.62c27.65-8,70.2-38.19,37.12-63.19a32.63,32.63,0,0,0-12.13-6.19,1.46,1.46,0,0,0-.5-.12,15.35,15.35,0,0,0-14.27,4"/><path class="cls-4" d="M255.28,622.1c-16.85,15.15-17.61,65.52-17.61,65.52h-4.48S216.52,597.16,255.28,622.1Z"/><path class="cls-4" d="M240.57,687.62h-2.9s.76-50.37,17.61-65.52a40.94,40.94,0,0,1,3.41,2.33C291.83,649.43,268.16,679.67,240.57,687.62Z"/><path class="cls-4" d="M238.89,618.62a41.83,41.83,0,0,1,9.06-2.18A66.36,66.36,0,0,1,270,618.23"/><path class="cls-4" d="M224,687.62c-18.11-1.56-48.17-15.14-30.7-34.66a20.46,20.46,0,0,1,6.77-5.31,1,1,0,0,1,.29-.14,9.72,9.72,0,0,1,9.33.73"/><path class="cls-4" d="M209.64,648.24c12.3,7.34,18.89,38.49,18.89,38.49l2.78-.55S230.64,628.06,209.64,648.24Z"/><path class="cls-4" d="M226.73,687.08l1.8-.35s-6.59-31.15-18.89-38.49c-.58.52-1.19,1.17-1.83,1.86C190.31,669.63,208.66,685.5,226.73,687.08Z"/><path class="cls-4" d="M219.39,644.09a26.22,26.22,0,0,0-5.89-.25,41.93,41.93,0,0,0-13.48,3.8"/><path class="cls-8" d="M812,281l3.91,7s-5.72,12.72,9.61,14.92,35.51-12.87,36.06-22.82c23.55,9.1,36,32,36.22,56.52.4,60.7-77.7,97.5-129.89,92-26.23-2.75-51-14.32-71.68-30.65-2.76-2.14-5.41-4.39-8-6.71a157.09,157.09,0,0,1-14.7-15.35q-3.53-4.2-6.88-8.59"/><line class="cls-4" x1="845.47" y1="252.52" x2="860.49" y2="281.17"/><line class="cls-4" x1="65.69" y1="947.27" x2="934.31" y2="947.27"/><path class="cls-4" d="M665,141.21h-.13c-4.84.82-10.66,5.13-13.68,10.71-3.46,6.31-3.86,14-4.6,17.26-.08.37-.16.73-.2,1.06a6.53,6.53,0,0,0-.2.85l-.13.49a6.6,6.6,0,0,1-12.9-2.52l.28-2.28c.09-.82.21-1.59.37-2.36a45,45,0,0,1,1.47-6.6,9.16,9.16,0,0,1,.32-1,9.51,9.51,0,0,1,.49-1.51,7.73,7.73,0,0,1,.33-.77"/><path class="cls-4" d="M677.28,186.76q-4.54,4.35-8.68,4.34a7.76,7.76,0,0,1-3.38-.77,8.26,8.26,0,0,1-2.63-1.87c-2.5-2.57-2.4-6.88-1.21-9.77a18.67,18.67,0,0,1,3.45-5.09c.45-.51.89-1,1.28-1.53a14.55,14.55,0,0,0,2.92-5.15c0-.11,0-.21.05-.32"/><path class="cls-4" d="M653.54,138.41c1.87.35,3.67.78,5.51,1.2s3.88,1,5.8,1.6A37.07,37.07,0,0,1,677,147.42c9.86,7.29,11.93,19.72,4.82,28.89"/><path class="cls-4" d="M646.59,169.18c0,.09,0,.17-.05.28a7.92,7.92,0,0,1-.14,1l-.22,2.28A6.59,6.59,0,0,0,656.26,179a6.41,6.41,0,0,0,2.92-4.24c.19-.85.35-1.77.57-2.64.8-3.38,1.1-6.4,3.62-9a7.89,7.89,0,0,1,2.49-1.74,3.82,3.82,0,0,1,.73-.23"/><path class="cls-4" d="M619.86,163.2v-.26a39.29,39.29,0,0,1,3.38-12.5,25.84,25.84,0,0,1,4.45-6.75,19,19,0,0,1,11-6.12c1.23-.18,2.44-.3,3.68-.36a46,46,0,0,1,11.11,1.2c-3,.23-8.14,3.44-11.85,7.48a20.82,20.82,0,0,0-3.68,5.19c-.47,1-1,2.1-1.37,3.16-.38.86-.71,1.73-1,2.58-.87,2.46-1.62,4.89-2.19,7.13-.26,1-.5,2-.69,2.9a6.91,6.91,0,0,1-7.27,5.63,6.58,6.58,0,0,1-5.78-7.23l.2-2.05"/><path class="cls-9" d="M612,338.31c-1.7-3.41-2.8-7.15-1.16-10.41,3.71-7.4,15.64-3.48,22.62-8,6-3.85,5.39-8.42,8.67-14.12,3.83-6.67,10.73-4,16-.68,6.73,4.21,21.43,19,45,33.57a191.9,191.9,0,0,1,21,15.11c18.53,15.27,64.69,41.73,104.82-29.45"/><path class="cls-9" d="M667.62,368.51c-3.29-3.35-6.87-6.89-11.49-7.73-4.93-.91-9.85,1.42-14.84,1.66C629,363,619.88,351.55,613.55,341c-.52-.85-1-1.76-1.51-2.67"/><path class="cls-9" d="M638.3,352.18s-11.75,6.31-16.75-.18"/><path class="cls-9" d="M614.58,342.77s9.55,6.5,16.25,1.08"/><path class="cls-9" d="M610.15,334.18s8.31,5.09,11.88,1.44"/></svg>