<svg id="Layer_2" data-name="Layer 2" xmlns="http://www.w3.org/2000/svg" viewBox="0 0 1000 1000"><defs><style>.cls-1,.cls-10,.cls-11,.cls-12,.cls-9{fill:none;stroke-width:4.01px;}.cls-1{stroke:#ccdde2;}.cls-1,.cls-11,.cls-9{stroke-miterlimit:10;}.cls-2{opacity:0.81;}.cls-3{opacity:0.46;}.cls-4{opacity:0.25;}.cls-5{fill:#d7e8f0;}.cls-6{fill:#2e2e2e;}.cls-7{fill:#fff;}.cls-8{fill:#3fbdf1;}.cls-10,.cls-11,.cls-12,.cls-9{stroke:#000;}.cls-10,.cls-11{stroke-linecap:round;}.cls-10,.cls-12{stroke-linejoin:round;}.cls-12{stroke-linecap:square;}</style></defs><polyline class="cls-1" points="590.45 444.97 656.06 365.86 721.67 444.97 721.67 751.32"/><g class="cls-2"><rect class="cls-1" x="679.78" y="458.19" width="17.63" height="17.63"/><rect class="cls-1" x="646.44" y="458.19" width="17.63" height="17.63"/><rect class="cls-1" x="613.11" y="458.19" width="17.63" height="17.63"/></g><g class="cls-3"><rect class="cls-1" x="679.78" y="499.14" width="17.63" height="17.63"/><rect class="cls-1" x="646.44" y="499.14" width="17.63" height="17.63"/><rect class="cls-1" x="613.11" y="499.14" width="17.63" height="17.63"/></g><g class="cls-4"><rect class="cls-1" x="679.78" y="541.82" width="17.63" height="17.63"/><rect class="cls-1" x="646.44" y="541.82" width="17.63" height="17.63"/><rect class="cls-1" x="613.11" y="541.82" width="17.63" height="17.63"/></g><g class="cls-4"><rect class="cls-1" x="679.78" y="578.49" width="17.63" height="17.63"/><rect class="cls-1" x="646.44" y="578.49" width="17.63" height="17.63"/><rect class="cls-1" x="613.11" y="578.49" width="17.63" height="17.63"/></g><polyline class="cls-1" points="746.08 703.3 746.08 331.62 916.35 331.62 916.35 752.03"/><path class="cls-5" d="M763,365.86v21.75h21.75V347.69H763Zm3.57-14.6h14.6v14.6h-14.6Zm0,18.18h14.6V384h-14.6Z"/><path class="cls-5" d="M801.36,365.86v21.75H823.1V347.69H801.36Zm3.57-14.6h14.6v14.6h-14.6Zm0,18.18h14.6V384h-14.6Z"/><path class="cls-5" d="M838.66,365.86v21.75H860.4V347.69H838.66Zm3.57-14.6h14.6v14.6h-14.6Zm0,18.18h14.6V384h-14.6Z"/><path class="cls-5" d="M873.77,347.69v39.92h21.74V347.69ZM891.94,384h-14.6V369.44h14.6Zm0-18.17h-14.6v-14.6h14.6Z"/><path class="cls-5" d="M763,419.56v21.75h21.75V401.39H763Zm3.57-14.6h14.6v14.6h-14.6Zm0,18.17h14.6v14.61h-14.6Z"/><path class="cls-5" d="M801.36,419.56v21.75H823.1V401.39H801.36Zm3.57-14.6h14.6v14.6h-14.6Zm0,18.17h14.6v14.61h-14.6Z"/><path class="cls-5" d="M838.66,419.56v21.75H860.4V401.39H838.66Zm3.57-14.6h14.6v14.6h-14.6Zm0,18.17h14.6v14.61h-14.6Z"/><path class="cls-5" d="M873.77,419.56v21.75h21.74V401.39H873.77Zm3.57-14.6h14.6v14.6h-14.6Zm0,18.17h14.6v14.61h-14.6Z"/><path class="cls-5" d="M763,473.26V495h21.75V455.09H763Zm3.57-14.6h14.6v14.6h-14.6Zm0,18.18h14.6v14.6h-14.6Z"/><path class="cls-5" d="M801.36,473.26V495H823.1V455.09H801.36Zm3.57-14.6h14.6v14.6h-14.6Zm0,18.18h14.6v14.6h-14.6Z"/><path class="cls-5" d="M838.66,473.26V495H860.4V455.09H838.66Zm3.57-14.6h14.6v14.6h-14.6Zm0,18.18h14.6v14.6h-14.6Z"/><path class="cls-5" d="M873.77,473.26V495h21.74V455.09H873.77Zm3.57-14.6h14.6v14.6h-14.6Zm0,18.18h14.6v14.6h-14.6Z"/><path class="cls-5" d="M763,527v21.74h21.75V508.79H763Zm3.57-14.6h14.6V527h-14.6Zm0,18.17h14.6v14.6h-14.6Z"/><path class="cls-5" d="M801.36,527v21.74H823.1V508.79H801.36Zm3.57-14.6h14.6V527h-14.6Zm0,18.17h14.6v14.6h-14.6Z"/><path class="cls-5" d="M838.66,527v21.74H860.4V508.79H838.66Zm3.57-14.6h14.6V527h-14.6Zm0,18.17h14.6v14.6h-14.6Z"/><path class="cls-5" d="M873.77,527v21.74h21.74V508.79H873.77Zm3.57-14.6h14.6V527h-14.6Zm0,18.17h14.6v14.6h-14.6Z"/><path class="cls-5" d="M763,580.66v21.75h21.75V562.49H763Zm3.57-14.59h14.6v14.59h-14.6Zm0,18.17h14.6v14.6h-14.6Z"/><path class="cls-5" d="M801.36,580.66v21.75H823.1V562.49H801.36Zm3.57-14.59h14.6v14.59h-14.6Zm0,18.17h14.6v14.6h-14.6Z"/><path class="cls-5" d="M838.66,580.66v21.75H860.4V562.49H838.66Zm3.57-14.59h14.6v14.59h-14.6Zm0,18.17h14.6v14.6h-14.6Z"/><path class="cls-5" d="M873.77,580.66v21.75h21.74V562.49H873.77Zm3.57-14.59h14.6v14.59h-14.6Zm0,18.17h14.6v14.6h-14.6Z"/><path class="cls-1" d="M356.35,752.14V583.85a100.62,100.62,0,0,0-23.18-64.24h0a28.15,28.15,0,0,0-43.33,0h0a100.62,100.62,0,0,0-23.18,64.24v168.6"/><g class="cls-2"><rect class="cls-1" x="283.24" y="556.57" width="12.05" height="12.05" transform="translate(578.54 1125.19) rotate(180)"/><rect class="cls-1" x="306.03" y="556.57" width="12.05" height="12.05" transform="translate(624.1 1125.19) rotate(180)"/><rect class="cls-1" x="328.81" y="556.57" width="12.05" height="12.05" transform="translate(669.66 1125.19) rotate(180)"/></g><g class="cls-3"><rect class="cls-1" x="283.24" y="584.56" width="12.05" height="12.05" transform="translate(578.54 1181.17) rotate(180)"/><rect class="cls-1" x="306.03" y="584.56" width="12.05" height="12.05" transform="translate(624.1 1181.17) rotate(180)"/><rect class="cls-1" x="328.81" y="584.56" width="12.05" height="12.05" transform="translate(669.66 1181.17) rotate(180)"/></g><g class="cls-4"><rect class="cls-1" x="283.24" y="613.73" width="12.05" height="12.05" transform="translate(578.54 1239.51) rotate(180)"/><rect class="cls-1" x="306.03" y="613.73" width="12.05" height="12.05" transform="translate(624.1 1239.51) rotate(180)"/><rect class="cls-1" x="328.81" y="613.73" width="12.05" height="12.05" transform="translate(669.66 1239.51) rotate(180)"/></g><g class="cls-4"><rect class="cls-1" x="283.24" y="638.79" width="12.05" height="12.05" transform="translate(578.54 1289.63) rotate(180)"/><rect class="cls-1" x="306.03" y="638.79" width="12.05" height="12.05" transform="translate(624.1 1289.63) rotate(180)"/><rect class="cls-1" x="328.81" y="638.79" width="12.05" height="12.05" transform="translate(669.66 1289.63) rotate(180)"/></g><polyline class="cls-1" points="133.61 752.91 133.61 470.07 249.99 470.07 249.99 752.51"/><path class="cls-5" d="M238.42,493.47v14.86H223.56V481.05h14.86Zm-2.45-10H226v10h10Zm0,12.42H226v10h10Z"/><path class="cls-5" d="M212.2,493.47v14.86H197.34V481.05H212.2Zm-2.44-10h-10v10h10Zm0,12.42h-10v10h10Z"/><path class="cls-5" d="M186.71,493.47v14.86H171.85V481.05h14.86Zm-2.44-10h-10v10h10Zm0,12.42h-10v10h10Z"/><path class="cls-5" d="M162.71,481.05v27.28H147.85V481.05Zm-12.42,24.84h10v-10h-10Zm0-12.42h10v-10h-10Z"/><path class="cls-5" d="M238.42,530.17V545H223.56V517.76h14.86Zm-2.45-10H226v10h10Zm0,12.42H226v10h10Z"/><path class="cls-5" d="M212.2,530.17V545H197.34V517.76H212.2Zm-2.44-10h-10v10h10Zm0,12.42h-10v10h10Z"/><path class="cls-5" d="M186.71,530.17V545H171.85V517.76h14.86Zm-2.44-10h-10v10h10Zm0,12.42h-10v10h10Z"/><path class="cls-5" d="M162.71,530.17V545H147.85V517.76h14.86Zm-2.44-10h-10v10h10Zm0,12.42h-10v10h10Z"/><path class="cls-5" d="M238.42,566.88v14.86H223.56V554.46h14.86Zm-2.45-10H226v10h10Zm0,12.42H226v10h10Z"/><path class="cls-5" d="M212.2,566.88v14.86H197.34V554.46H212.2Zm-2.44-10h-10v10h10Zm0,12.42h-10v10h10Z"/><path class="cls-5" d="M186.71,566.88v14.86H171.85V554.46h14.86Zm-2.44-10h-10v10h10Zm0,12.42h-10v10h10Z"/><path class="cls-5" d="M162.71,566.88v14.86H147.85V554.46h14.86Zm-2.44-10h-10v10h10Zm0,12.42h-10v10h10Z"/><path class="cls-5" d="M238.42,603.58v14.86H223.56V591.16h14.86Zm-2.45-10H226v10h10ZM236,606H226v10h10Z"/><path class="cls-5" d="M212.2,603.58v14.86H197.34V591.16H212.2Zm-2.44-10h-10v10h10Zm0,12.42h-10v10h10Z"/><path class="cls-5" d="M186.71,603.58v14.86H171.85V591.16h14.86Zm-2.44-10h-10v10h10Zm0,12.42h-10v10h10Z"/><path class="cls-5" d="M162.71,603.58v14.86H147.85V591.16h14.86Zm-2.44-10h-10v10h10Zm0,12.42h-10v10h10Z"/><path class="cls-5" d="M238.42,640.28v14.86H223.56V627.86h14.86Zm-2.45-10H226v10h10Zm0,12.42H226v10h10Z"/><path class="cls-5" d="M212.2,640.28v14.86H197.34V627.86H212.2Zm-2.44-10h-10v10h10Zm0,12.42h-10v10h10Z"/><path class="cls-5" d="M186.71,640.28v14.86H171.85V627.86h14.86Zm-2.44-10h-10v10h10Zm0,12.42h-10v10h10Z"/><path class="cls-5" d="M162.71,640.28v14.86H147.85V627.86h14.86Zm-2.44-10h-10v10h10Zm0,12.42h-10v10h10Z"/><path class="cls-6" d="M436.06,444.05s-2.83,38.5-45.48,34.94c0,0,14.94,38.31,25.66,45.09l53.86,34.09L483,497.86Z"/><path class="cls-7" d="M390.4,589,277.54,752.43l-124.46.43v-2.28a21,21,0,0,1,19.58-20.94L207,727.35,307.14,546.57a72.23,72.23,0,0,1,103-26.38l.86.56,57.64,36.44-40.9,98.56-51.93-45.56"/><path class="cls-6" d="M772.09,684.19c-10.39,28.92-29.4,33.61-51.63,32.12-11.63-15.24-25.41-36-36.55-51.51q-19.42-27.15-38.9-54.22c-3.31-4.64-6.62-9.25-10-13.89v69.53a77.57,77.57,0,0,1-.71,10.73c-63.34,54.13-153.81-13.79-166.15-23.6h0c-.93-.71-1.39-1.11-1.39-1.11-5.91-42.83.47-75.22,1.83-99.71,1.86-32.72,7.92-43.12,13.3-53.18l2.23-5.64c4.18-7.79,4-9.73,4.56-10.1,0,0-.17-1.43-.17-1.43s2.17-2.44,2.17-2.5c12.22-20.17,21.63-37,41.86-49.13-7,5.16-11.84,17.66-4.42,24.49,8.63,7.95,20.38-1.45,27.46-7a110.2,110.2,0,0,0,23.54-24.27c2.07-3,4.67-6.19,4.27-10,14.66-.21,27.06,5,42.18,13.74,19.12,11.07,34.36,27.77,44.76,47.29Z"/><path class="cls-8" d="M589.4,374.26l0,.28a22,22,0,0,1-22,22,21.43,21.43,0,0,1-10.67-2.79,17.64,17.64,0,0,1-2.66-1.7,2.74,2.74,0,0,1,.34-4.48c4.51-2.72,8.75-6.68,10.27-11.6a11.83,11.83,0,0,0,.46-4.67,11.47,11.47,0,0,0-6.37-9.53,7.36,7.36,0,0,0-1.76-.43c-1.7-.28-4-.25-4.52,1a29.73,29.73,0,0,0,1.83-19A26.66,26.66,0,0,0,549,332.57a7.69,7.69,0,0,1-8.88,7.85c-8.69-1-9.65-9.46-9.65-9.46s-.06.09-.06.15c-4.58,9.16-15.68,8.51-23.26,3.65a22.2,22.2,0,0,1-6.74-6.52c-1.46-9.9,7.33-18.62,16.67-19.21.71-6.15,5.75-12.4,11.87-12.4a11.89,11.89,0,0,1,10.43,6.12,8.3,8.3,0,0,1,.43.9c2.78-3.4,7.18-7,11.54-7a14.71,14.71,0,0,1,13.88,9.9c0-.44,4-1.86,4.39-2a17.15,17.15,0,0,1,5-.68,17.62,17.62,0,0,1,14.6,8.47,14.69,14.69,0,0,1,.22,2.66,16.92,16.92,0,0,1-1.83,7.67,11.5,11.5,0,0,1,3.72,2.26,11.79,11.79,0,0,1,4,8v0c0,.31,0,.62,0,.93a11.65,11.65,0,0,1-2,6.55,17.72,17.72,0,0,1,4.05,2.17,17.43,17.43,0,0,1,7,11.26,17.82,17.82,0,0,1,.25,3A17.58,17.58,0,0,1,589.4,374.26Z"/><path class="cls-8" d="M589.4,374.26l0,.28a22,22,0,0,1-22,22,21.43,21.43,0,0,1-10.67-2.79c4.51-2.72,8.75-6.68,10.27-11.59a12.47,12.47,0,0,0-1.86-10.86,11.47,11.47,0,0,0-6.37-9.53,7.36,7.36,0,0,0-1.76-.43,28.63,28.63,0,0,0-2.69-18A26.66,26.66,0,0,0,549,332.57a7.69,7.69,0,0,1-8.88,7.85c-8.69-1-9.65-9.46-9.65-9.46s-.06.09-.06.15c-4.58,9.16-15.68,8.51-23.26,3.65a22.2,22.2,0,0,1-6.74-6.52c-1.46-9.9,7.33-18.62,16.67-19.21.71-6.15,5.75-12.4,11.87-12.4a11.89,11.89,0,0,1,10.43,6.12,8.3,8.3,0,0,1,.43.9c2.78-3.4,7.18-7,11.54-7a14.71,14.71,0,0,1,13.88,9.9c0-.44,4-1.86,4.39-2a17.15,17.15,0,0,1,5-.68,17.62,17.62,0,0,1,14.6,8.47,14.69,14.69,0,0,1,.22,2.66,16.92,16.92,0,0,1-1.83,7.67,11.5,11.5,0,0,1,3.72,2.26,16.16,16.16,0,0,1-1.4,3.93,12.27,12.27,0,0,1,5.42,4.05v0c0,.31,0,.62,0,.93a11.65,11.65,0,0,1-2,6.55,17.72,17.72,0,0,1,4.05,2.17,12.44,12.44,0,0,1-1.73,4,17.3,17.3,0,0,1,8.78,7.24,17.82,17.82,0,0,1,.25,3A17.58,17.58,0,0,1,589.4,374.26Z"/><path class="cls-8" d="M532.6,957.14H390.4v-2.75a21,21,0,0,1,20.22-21L444.18,932h79.24Z"/><path class="cls-8" d="M277.54,752.43l-124.46-.31v-2.75a21,21,0,0,1,20.23-21L206.87,727l87.29,1.39Z"/><path class="cls-9" d="M483.52,751.72h66A85.76,85.76,0,0,0,634.33,677a77.81,77.81,0,0,0,.71-10.74V596.71"/><path class="cls-9" d="M507.49,652l-38.69,1.33h-.65l-24.43.49a82.7,82.7,0,0,0-16,1.89c-43.61,9.43-71.48,53.13-62.17,96.37a81.39,81.39,0,0,0,6.4,18.62L444.18,932l-33.56,1.36a21,21,0,0,0-20.22,21v2.75H532.6L523.42,932,457.34,751.47"/><line class="cls-9" x1="390.4" y1="589.04" x2="277.54" y2="752.43"/><line class="cls-9" x1="427.7" y1="655.75" x2="375.77" y2="610.19"/><line class="cls-9" x1="537.03" y1="751.66" x2="536.69" y2="751.35"/><line class="cls-9" x1="410.96" y1="520.75" x2="377.25" y2="451.69"/><path class="cls-9" d="M820.7,751.47c0,.06.06.09.09.16H792.25"/><path class="cls-9" d="M491.19,751.78c0-.15-.09-.31-.12-.43"/><path class="cls-9" d="M583.4,414.68A69,69,0,0,1,614.14,421a120.55,120.55,0,0,1,53.51,49c13.64,23.79,24.68,49.46,36.8,74q22.78,46.26,45.62,92.48,11,22.31,22,44.63l15.56,31.51a35.7,35.7,0,0,0,13.08,12.62,36.17,36.17,0,0,0,17.57,4.58,32.32,32.32,0,0,1,29.32,18.71l1.36,2.94H811.43"/><path class="cls-9" d="M468.81,653.35c-4.41-28.28-3.48-56.75-1.25-85.19,4-50.83,19.46-101.76,60.91-134.64,1.07-.85,2.15-1.69,3.27-2.47"/><path class="cls-9" d="M571.39,482.18c-.78,29.94,24.77,60.28,24.77,60.28s.06.06.06.09q19.44,27,38.82,54.16c3.34,4.64,6.65,9.25,10,13.88q19.49,27.1,38.9,54.22C695,680.37,705.43,696.7,717.06,712c3,3.92,6.06,7.76,9.28,11.5,4.11,4.8,8.35,10.27,13.36,14.14s10.82,7.48,16,11.56a52,52,0,0,1,11,12.81c3.22,5.5,3.56,11.72,6.31,17.22,4.82,9.72,16.73,8.11,20.81-1.17,5.66-12.87-6.71-40.7-6.71-40.7"/><line class="cls-9" x1="950" y1="751.63" x2="792.25" y2="751.63"/><path class="cls-9" d="M468.6,557.19,411,520.75l-.86-.56a72.23,72.23,0,0,0-103,26.38L207,727.35l-34.36,2.29a21,21,0,0,0-19.58,20.94v2.28"/><path class="cls-9" d="M362.93,397.44c4.76.93,6.56.62,10,1.3a1.23,1.23,0,0,0,1-2.14l-11.38-11a18.56,18.56,0,0,1-6.12-10.27l-.1-.4a7.92,7.92,0,0,1,5.85-5.53,12.64,12.64,0,0,1,7.14.92c3.71,1.46,8.69,2.76,13.43,4.39a29,29,0,0,1,15.52,12.93l.44.78a487.84,487.84,0,0,0,46.6,67.23l37,45.47"/><path class="cls-8" d="M368.84,456.35h0a9.92,9.92,0,0,1-9.48-7L349.84,420l-8.4-27.73-10.95-35.7a9.09,9.09,0,0,1,9-11.75h0a9.08,9.08,0,0,1,8.37,6.27l15.09,46.35,15.35,45.91A9.93,9.93,0,0,1,368.84,456.35Z"/><path class="cls-9" d="M368.84,456.35h0a9.92,9.92,0,0,1-9.48-7L349.84,420l-8.4-27.73-10.95-35.7a9.09,9.09,0,0,1,9-11.75h0a9.08,9.08,0,0,1,8.37,6.27l15.09,46.35,15.35,45.91A9.93,9.93,0,0,1,368.84,456.35Z"/><path class="cls-9" d="M329.93,411.42s0,0,0,0a12.71,12.71,0,0,1-6.65-2.2A10,10,0,0,1,321.39,395a11.77,11.77,0,0,1,5.76-3.86,13.71,13.71,0,0,1,8.9.12,14.39,14.39,0,0,1,7.08,6.63"/><path class="cls-9" d="M335.84,430.5a12.75,12.75,0,0,1-6.74-2,10,10,0,0,1-2.24-14.17,11.78,11.78,0,0,1,5.68-4,13.65,13.65,0,0,1,8.88-.1c2.87,1,5.7,2.78,7.09,5.43"/><path class="cls-9" d="M354,432.9A12.58,12.58,0,0,0,338.8,429a10.83,10.83,0,0,0-4.83,4.09,9.1,9.1,0,0,0,3.12,12.66l1.36.73s8.16,3.28,21.77,4.85"/><path class="cls-9" d="M444.84,751.81c3.77,0,42.55,0,46.35,0,15.22-.06,30.53-.09,45.84-.12,75.8-.19,151.88-.31,221-.34"/><path class="cls-9" d="M792.15,751.32c23.08,0,35.91,0,56.76,0,34,.06,64.64.15,90.62.28"/><path class="cls-9" d="M50,753.27c1.82,0,141.62-.62,315.53-1.15"/><path class="cls-9" d="M583.4,413.78c.4,3.84-2.2,7.06-4.27,10a110.2,110.2,0,0,1-23.54,24.27c-7.08,5.51-18.83,14.91-27.46,7-7.42-6.83-2.63-19.33,4.42-24.49l.09-.06"/><path class="cls-9" d="M514.11,348.1s12.54,1.21,14.54,12"/><path class="cls-9" d="M508.27,379.56a23,23,0,0,1-8.77-.29,3.44,3.44,0,0,1-2-5.31c3-4.21,6-8.37,9.31-12.33a3.55,3.55,0,0,0,1-1.84s-.13-13.19,3.34-23"/><ellipse cx="516.62" cy="359.11" rx="3.87" ry="3.29" transform="translate(58.93 790.83) rotate(-78.13)"/><path class="cls-10" d="M583.4,414.68c-4.61-13.37-6.73-20.2-6.73-20.2"/><line class="cls-9" x1="532.65" y1="410.21" x2="532.58" y2="456.35"/><path class="cls-10" d="M503.67,379.85s3.22,26.54,16.1,31.57,25.67-10.49,25.67-10.49"/><path class="cls-10" d="M506.31,391.92a12.25,12.25,0,0,0,11.59,1.33"/><path class="cls-11" d="M538.61,302.38a11.65,11.65,0,0,0-1.54-5.81,12,12,0,0,0-22.39,5.81"/><path class="cls-10" d="M532,320a17.72,17.72,0,0,0-7.8-14.61c-12-8.08-29.29,4.26-25.86,18.17,1.2,4.85,4.69,8.58,8.8,11.21,7.57,4.86,18.68,5.53,23.24-3.64l.07-.15s1,8.44,9.65,9.46a7.72,7.72,0,0,0,8.89-7.85c6.87,8.33,7.89,20,3.51,29.75.79-1.76,5.11-1.07,6.28-.55,5.22,2.31,7.56,8.88,5.92,14.18-1.53,4.94-5.77,8.87-10.26,11.62a2.73,2.73,0,0,0-.35,4.47,22,22,0,0,0,35.31-17.5l0-.28a17.55,17.55,0,0,0,4-33.84,11.65,11.65,0,0,0,2-6.55,12,12,0,0,0-12-12"/><path class="cls-12" d="M538.61,296.21c2.69-3.71,5.51-5.77,10.43-5.77a14.68,14.68,0,0,1,13.88,9.93c-.13-.4,4-1.88,4.41-2a17.31,17.31,0,0,1,5-.68A17.62,17.62,0,0,1,589.46,315a17.05,17.05,0,0,1-1.83,7.67"/><path class="cls-8" d="M589.4,374.26l0,.28a22,22,0,0,1-22,22,21.43,21.43,0,0,1-10.67-2.79,17.64,17.64,0,0,1-2.66-1.7,2.74,2.74,0,0,1,.34-4.48c4.51-2.72,8.75-6.68,10.27-11.6a11.83,11.83,0,0,0,.46-4.67,11.47,11.47,0,0,0-6.37-9.53,7.36,7.36,0,0,0-1.76-.43c-1.7-.28-4-.25-4.52,1a29.73,29.73,0,0,0,1.83-19A26.66,26.66,0,0,0,549,332.57a7.69,7.69,0,0,1-8.88,7.85c-8.69-1-9.65-9.46-9.65-9.46s-.06.09-.06.15c-4.58,9.16-15.68,8.51-23.26,3.65a22.2,22.2,0,0,1-6.74-6.52c-1.46-9.9,7.33-18.62,16.67-19.21.71-6.15,5.75-12.4,11.87-12.4a11.89,11.89,0,0,1,10.43,6.12,8.3,8.3,0,0,1,.43.9c2.78-3.4,7.18-7,11.54-7a14.71,14.71,0,0,1,13.88,9.9c0-.44,4-1.86,4.39-2a17.15,17.15,0,0,1,5-.68,17.62,17.62,0,0,1,14.6,8.47,14.69,14.69,0,0,1,.22,2.66,16.92,16.92,0,0,1-1.83,7.67,11.5,11.5,0,0,1,3.72,2.26,11.79,11.79,0,0,1,4,8v0c0,.31,0,.62,0,.93a11.65,11.65,0,0,1-2,6.55,17.72,17.72,0,0,1,4.05,2.17,17.43,17.43,0,0,1,7,11.26,17.82,17.82,0,0,1,.25,3A17.58,17.58,0,0,1,589.4,374.26Z"/><path class="cls-8" d="M589.4,374.26l0,.28a22,22,0,0,1-22,22,21.43,21.43,0,0,1-10.67-2.79c4.51-2.72,8.75-6.68,10.27-11.59a12.47,12.47,0,0,0-1.86-10.86,11.47,11.47,0,0,0-6.37-9.53,7.36,7.36,0,0,0-1.76-.43,28.63,28.63,0,0,0-2.69-18A26.66,26.66,0,0,0,549,332.57a7.69,7.69,0,0,1-8.88,7.85c-8.69-1-9.65-9.46-9.65-9.46s-.06.09-.06.15c-4.58,9.16-15.68,8.51-23.26,3.65a22.2,22.2,0,0,1-6.74-6.52c-1.46-9.9,7.33-18.62,16.67-19.21.71-6.15,5.75-12.4,11.87-12.4a11.89,11.89,0,0,1,10.43,6.12,8.3,8.3,0,0,1,.43.9c2.78-3.4,7.18-7,11.54-7a14.71,14.71,0,0,1,13.88,9.9c0-.44,4-1.86,4.39-2a17.15,17.15,0,0,1,5-.68,17.62,17.62,0,0,1,14.6,8.47,14.69,14.69,0,0,1,.22,2.66,16.92,16.92,0,0,1-1.83,7.67,11.5,11.5,0,0,1,3.72,2.26,16.16,16.16,0,0,1-1.4,3.93,12.27,12.27,0,0,1,5.42,4.05v0c0,.31,0,.62,0,.93a11.65,11.65,0,0,1-2,6.55,17.72,17.72,0,0,1,4.05,2.17,12.44,12.44,0,0,1-1.73,4,17.3,17.3,0,0,1,8.78,7.24,17.82,17.82,0,0,1,.25,3A17.58,17.58,0,0,1,589.4,374.26Z"/><path class="cls-9" d="M514.11,348.1s12.54,1.21,14.54,12"/><path class="cls-9" d="M508.27,379.56a23,23,0,0,1-8.77-.29,3.44,3.44,0,0,1-2-5.31c3-4.21,6-8.37,9.31-12.33a3.55,3.55,0,0,0,1-1.84s-.13-13.19,3.34-23"/><ellipse cx="516.62" cy="359.11" rx="3.87" ry="3.29" transform="translate(58.93 790.83) rotate(-78.13)"/><path class="cls-10" d="M583.4,414.68c-4.61-13.37-6.73-20.2-6.73-20.2"/><line class="cls-9" x1="532.65" y1="410.21" x2="532.58" y2="456.35"/><path class="cls-10" d="M503.67,379.85s3.22,26.54,16.1,31.57,25.67-10.49,25.67-10.49"/><path class="cls-10" d="M506.31,391.92a12.25,12.25,0,0,0,11.59,1.33"/><path class="cls-11" d="M538.61,302.38a11.65,11.65,0,0,0-1.54-5.81,12,12,0,0,0-22.39,5.81"/><path class="cls-10" d="M532,320a17.72,17.72,0,0,0-7.8-14.61c-12-8.08-29.29,4.26-25.86,18.17,1.2,4.85,4.69,8.58,8.8,11.21,7.57,4.86,18.68,5.53,23.24-3.64l.07-.15s1,8.44,9.65,9.46a7.72,7.72,0,0,0,8.89-7.85c6.87,8.33,7.89,20,3.51,29.75.79-1.76,5.11-1.07,6.28-.55,5.22,2.31,7.56,8.88,5.92,14.18-1.53,4.94-5.77,8.87-10.26,11.62a2.73,2.73,0,0,0-.35,4.47,22,22,0,0,0,35.31-17.5l0-.28a17.55,17.55,0,0,0,4-33.84,11.65,11.65,0,0,0,2-6.55,12,12,0,0,0-12-12"/><path class="cls-12" d="M538.61,296.21c2.69-3.71,5.51-5.77,10.43-5.77a14.68,14.68,0,0,1,13.88,9.93c-.13-.4,4-1.88,4.41-2a17.31,17.31,0,0,1,5-.68A17.62,17.62,0,0,1,589.46,315a17.05,17.05,0,0,1-1.83,7.67"/></svg>