<svg id="Layer_2" data-name="Layer 2" xmlns="http://www.w3.org/2000/svg" viewBox="0 0 1000 1000"><defs><style>.cls-1,.cls-2,.cls-5,.cls-7{fill:none;stroke-width:3.65px;}.cls-1,.cls-2{stroke:#ccdde2;}.cls-1,.cls-7{stroke-linejoin:round;}.cls-2,.cls-5{stroke-miterlimit:10;}.cls-3{fill:#d7e8f0;}.cls-4{fill:#2e2e2e;}.cls-5,.cls-7{stroke:#000;}.cls-6{fill:#3fbdf1;}.cls-7{stroke-linecap:round;}</style></defs><path class="cls-1" d="M464.36,933.53s-6.49-9.92-6.49-32.27S467.94,869,467.94,869c-10.92,31.88,11.6,64.55,11.6,64.55.68-1.22,7.17-10.44,7.85-26.82,0,0,6.14,14.06,1,26.82"/><path class="cls-1" d="M607.24,933.53s4-6.1,4-19.84S605,893.84,605,893.84c6.72,19.6-7.13,39.69-7.13,39.69-.42-.75-4.41-6.42-4.83-16.49,0,0-3.77,8.64-.62,16.49"/><polyline class="cls-2" points="797.15 789.38 836.56 827.16 836.56 569.69"/><line class="cls-2" x1="836.56" y1="790.64" x2="884.28" y2="748.71"/><line class="cls-2" x1="836.56" y1="686.2" x2="804.03" y2="649.78"/><line class="cls-2" x1="836.56" y1="653.43" x2="860.42" y2="639.06"/><path class="cls-2" d="M836.56,584.62c0-4.37-16.26-35.21-16.26-35.21"/><path class="cls-2" d="M789,624.43c7.77-5.4,14.43-11.78,17.21-23.22,4.7-19.35-1.22-40.16.17-59.85,1-13.27,6.43-30,15-40.23,11-13.17,25-3.61,32.25,8.81C866,531,860.45,556.86,860.38,580c0,17.89,5.42,33.32,19.91,44.25,13,9.83,28.16,18.69,33.56,35.09,5.87,17.89-23.22,13.22-31.5,20.43-14.92,13,15.63,43.13,24.15,51.74C927.82,753.12,969,792.23,940,827.81c-18.14,22.3-36,17.43-55.74,18.23l-10.61-.14a21.61,21.61,0,0,0-21.91,21.61l-.46,69.1"/><path class="cls-2" d="M760,648.6a46.33,46.33,0,0,0-5,10.73c-2.29,7,.31,10.4,5,12.44,17.28,7.6,62.82-4.28-10.13,72.92-1.68,1.76-3.24,3.46-4.75,5.16-1,1.07-1.89,2.12-2.82,3.17"/><path class="cls-2" d="M107.1,932.27c-4.25-.85-8.43-1.87-12.49-3.06-16.72-4.89-36.16-13.23-42.8-30.76A29.41,29.41,0,0,1,55.61,871a24.83,24.83,0,0,1,12.09-9C78.27,858.65,90,864,97.81,871.85s12.89,18,19,27.29c-5.55-12.45-11.19-25.24-12-38.85-.6-10.6,2.29-22.1,9.6-30.06,6.73-7.34,22.46-13.08,31.73-7.69,6.12,3.56,8.55,11.11,9.61,18.11,2.87,19.13-.82,38.56-4.5,57.55,2.47-10.15,5.12-20.4,10.16-29.56s12.75-17.25,22.64-20.64c6.92-2.37,15.15-2.12,20.95,2.35,5.41,4.17,7.83,11.21,8.57,18,1.24,11.38-1.44,22.93-6,33.41C190.4,940.89,142.7,939.41,107.1,932.27Z"/><path class="cls-2" d="M145.9,912.91s26.51,7.36,35.87-29.48"/><path class="cls-2" d="M134.1,850c-7.37,16.71,0,66.83,0,66.83"/><path class="cls-2" d="M109.53,911.77c-1.1-.19-11.73-1.68-20.8-5.84-7-3.23-13.1-8.06-13.1-15.13"/><path class="cls-2" d="M90.86,890.8s-10.37,12.08-2.13,15.13"/><path class="cls-2" d="M84,916.93c1.47-2,9.15,2.06,14.16-7.62"/><path class="cls-2" d="M130.83,872.12c-2.62-2-9.5,0-10.49-15.72"/><path class="cls-2" d="M132,886.87s11.47-4.14,11.47-13.13"/><path class="cls-2" d="M156.62,913.12s6-15.44,8.44-22.32"/><path class="cls-2" d="M175.2,898.36s6.57,5.21,14.43-3.14"/><path class="cls-2" d="M175.2,890.8S171,889,172.92,878.33"/><path class="cls-3" d="M428.25,783.3v55.88H252.59a96.52,96.52,0,0,1,93.61-72.94h65A17.06,17.06,0,0,1,428.25,783.3Z"/><path class="cls-4" d="M471.29,683.55s2.71-.64,3.61,9,8,31-3.61,30.55S320,722.85,320,722.85s-21.54,6.2-24.15-10.84-1.45-39.25,21.24-46.53c0,0,31.78,14.91,65.26,16.42S471.29,683.55,471.29,683.55Z"/><path class="cls-3" d="M742,768s-7.47-5.16-25.21,1.58-51.12,15.09-68.28,69.2H428.32V782.88a17.07,17.07,0,0,0-17.07-17.06H334.71A96.49,96.49,0,0,0,244.11,829h-2.48V815.57c.12-1.41.29-2.8.46-4.16,6.19-47.24,47.49-82,95.12-82H459.67v56.32a23.23,23.23,0,0,0,18.59,22.76,23.94,23.94,0,0,0,4.58.43h77.3a107,107,0,0,0,52.77-13.75c35-19.74,71.39-59.56,72.26-147.86v-28l.88-.58s4.11-18.21,23.2-14.1a29.67,29.67,0,0,1,6.89,6.06c3.57,4.34,6.62,10.79,3.35,18.72,0,0-6.59,12.49-21.61,10.52a15.91,15.91,0,0,0-.58,2.89,17.58,17.58,0,0,0,0,3.63c.53,4.26,3.21,9,12.6,8.88h.56c17.65-.53,31.11-15.84,31.38-30.49.22-12.2-6.11-26-23.78-37.51a.18.18,0,0,1-.08,0,73.39,73.39,0,0,0-6.37-3.79c-1.8-1-3.68-1.93-5.67-2.85a27.61,27.61,0,0,1-9.52-3.82h56.47a6.52,6.52,0,0,1,6.52,6.52v87.5a6.52,6.52,0,0,1-6.52,6.53,11.37,11.37,0,0,0-11.44,11.44v46A35.74,35.74,0,0,0,766.25,769c.37.12.73.24,1.1.34a96.5,96.5,0,0,1,67.71,69.44H662.37C663.85,833.24,681.06,774.1,742,768Z"/><path class="cls-4" d="M351.67,677.81A140,140,0,0,1,327,670.53Z"/><path d="M275.12,614.6c-14.48-2.92-33.08-5.62-41.84-19.08-1.24-1.88-2.8-4.12-3.14-6.38a4.56,4.56,0,0,1-.07-.8c-.15-4.51,5.23-4.22,8.68-3.68,8.23,1.27,16.36,3.07,24.44,5q3.62.84,7.18,1.73A100.5,100.5,0,0,0,275.12,614.6Z"/><path class="cls-4" d="M681.57,608.39c-6.47,17.48-19.62,17.55-19.83,17.55-28.07-6.76-31.87-7.52-53.16-15.58-65.4-24.77-101.84-54.25-121.24-78.47-17.11,17.28-21.93,25.68-27.5,43.64a27.7,27.7,0,0,1-1.2,3.27s0,.12-.07.17l-1.14,2.41a.2.2,0,0,1-.05.09c-3.51,6.72-14.05,15.73-20.76,18.91l-122.7-.9-50.72-9.83c-8.09-1.92-16.21-3.72-24.44-5-2.46-.39-5.92-.63-7.62.9a3.23,3.23,0,0,0-1.07,2.78h0c0-5.87,3.05-9.89,6.6-14.14,3.77-4.58,7.57-9.16,11.34-13.71,21.2-25.29,41.89-51,63.14-76.23,5.23-6.21,10.56-12.29,16.26-18.06,19.93-20.25,43-38,68.25-51.19,40.91-21.25,72.65-29,98.4-27.28l.32,0c2.17.17,4.28.39,6.38.66h0l.88.12c19.74,2.8,35.85,11.39,50,23.59a42.64,42.64,0,0,1,4.5,6.28c5.79,9.81,9.76,20.3,13.82,30.88,19.48,51,55,96.17,106.22,117.71l.17,3.85,0,1.24c0-.29,0-.68,0-1.24,0-.9-.07-2.15-.14-3.85,0-.17,0-.34,0-.51l3.78,2,4.09,2.22a.82.82,0,0,0,0,.22C685.2,587.07,684.54,600.34,681.57,608.39Z"/><line class="cls-5" x1="131.97" y1="934.57" x2="789.08" y2="934.57"/><path class="cls-5" d="M460.2,577.27h44.53c31.86,0,51,30.68,47.07,62L532.15,782.53H483.28L474,683.31"/><path class="cls-5" d="M471.92,476.66S450.22,574.83,662.58,626c0,0,27.15.77,21.47-55.21"/><path class="cls-5" d="M484.9,683.55H434.59c-73.82,0-129.76-5.08-154.14-57.61a103,103,0,0,1-9.23-34.56"/><path class="cls-5" d="M682.42,606.54c13.12.1,6.92-.78,19.72,2.73,7.08,2,13.22,5.55,13.24,14.41,0,11.54-24.8,12.58-17.31,25.6,8,13.93,33.33.69,38.34-8.32,22.3-40.19-27.5-59.39-57.44-72.83h0"/><path class="cls-5" d="M276,614.6c-14.48-2.92-33.07-5.62-41.84-19.08-1.24-1.88-2.8-4.12-3.14-6.38-.82-5.33,5-5,8.62-4.48,24.27,3.7,47.56,12.22,72,14.43,6.81.61,13.68.91,20.52.91h95.7a34.48,34.48,0,0,0,32.86-24.47c4.72-15.23,12.78-31.54,26.5-44"/><path class="cls-5" d="M582.48,391.74c-1,0-55.39-5.73-80.9-3.34"/><circle class="cls-6" cx="703.35" cy="622.3" r="17.65"/><circle class="cls-5" cx="703.35" cy="622.3" r="17.65"/><circle class="cls-5" cx="703.35" cy="622.3" r="17.65"/><path class="cls-6" d="M566.84,388.29a63.7,63.7,0,0,0,5.54,11c.23.38,1.86-.34,3.21,1.59a0,0,0,0,0,0,0c2.77,3.94,8,4.39,9.37,2.77l-.13-.09-1.48-.9,3.34.77,2.19.08,3.23-3.15s-15.38-11.55-7.67-19.59c0,0,0,0,.06-.06a3.72,3.72,0,0,0,.45-.57c.38-.6-.08-.57.65-.68a5.15,5.15,0,0,1,4.17-1.41,4,4,0,0,1,2.34.87c.1-5.85-.43-12.41,3.15-15,1.44-3,3.82-5,7.62-4.85,1.1.05,2.1.13,3.05.26l10.29,2.48c2.17-3,3.78-.43,6.81.57a6.74,6.74,0,0,0,3.23.26,7.2,7.2,0,0,0,3.87-2c1.94-4.68,2.29-10.54.59-14.06,0,0-9.45-.35-16-2.09s-8.9-13.55-27.68-1.62a8.64,8.64,0,0,1-3.22,1.22c-2,.27-5.17.39-7.43-.88a3.48,3.48,0,0,1-.48-.3,3,3,0,0,1-.67-.52c.56.55-1.19,5.7-2.09,8.26a.24.24,0,0,0,0,.09c-.11.35-.24.64-.32.87l0,.07a3.33,3.33,0,0,1-.13.32,23.83,23.83,0,0,1-3.44,5.48l-.68.91,0,0a22.37,22.37,0,0,0-2.36,3.8C562.34,370.26,563.49,379.61,566.84,388.29Z"/><path class="cls-5" d="M584.91,403.69c3.4.35,6.59-.23,7.22-3.33l.11-.53s-14.67-10.11-7.78-19.06c0,0,0,0,.06-.06s.2-.28.3-.4.11-.12.15-.17c.24-.26.42-.47.65-.68,1.67-1.64,3-1.92,4.17-1.41a2.74,2.74,0,0,1,.79.53c1.84,1.57,2.89,5.27,3.46,8-.76-5.42-1.82-16.35,1.24-22.66,1.44-3,3.82-5,7.62-4.85l3.05.26,10.29,2.48,6.81.57,3.23.26a7.2,7.2,0,0,0,3.87-2c4.9-4.61,6.71-15.83,3.92-21.18,0,0-9.81.26-16.68-1.13s-9.83-14.35-30.18,1.19c-3.28,2-7.1,3.65-10.8,1.89a12,12,0,0,1,0,1.8,9,9,0,0,1-.87,2.94c-.74,1.52-1.52,3-2.37,4.5a.24.24,0,0,0,0,.09c-.81,1.43-1.68,2.86-2.51,4.28-.49.84-1,1.65-1.4,2.46a33,33,0,0,0-3.7,9.38,39.82,39.82,0,0,0-.61,11.63,45.79,45.79,0,0,0,2,9.83c1.85,6,3.65,10.78,9.91,13.29A32.75,32.75,0,0,0,584.91,403.69Z"/><path class="cls-5" d="M623.48,371.42s-9.91-.24-12.49,8"/><path class="cls-5" d="M627.1,362.82l.21,18.32a2.68,2.68,0,0,0,.58,1.53c2.12,3.3,4.06,6.73,5.94,10.19a2.94,2.94,0,0,1-2.23,4.33,18.31,18.31,0,0,1-6.51-.65"/><ellipse cx="620.49" cy="379.78" rx="2.59" ry="3.04" transform="translate(-30.73 55.5) rotate(-5)"/><path class="cls-7" d="M628,398.45c-2.56,10.15-11.88,28.23-25,25.34-6.16-1.36-10.37-7.7-14.44-12.05"/><path class="cls-6" d="M760,591.35c14.87,7.62,25,22.67,25,40,0,17.87-10.73,33.3-26.33,40.68Z"/><path class="cls-5" d="M542,782.53h-58.9v26.78h75.25V798.89A16.36,16.36,0,0,0,542,782.53Z"/><path class="cls-5" d="M596.68,420.39c-12.73,2.78-30.26,19.75-30.26,19.75"/><path class="cls-5" d="M623.48,409.84s-5.76,1.53-8.17-6.06"/><path class="cls-5" d="M314.46,664s-37.51,25.53-10,61.5"/><path class="cls-5" d="M244.61,829.45H230V809.31c.14-1.41.29-2.79.47-4.16,6.17-47.24,47.48-82,95.12-82H460.2v63a23.17,23.17,0,0,0,23.17,23.18h77.3a107.28,107.28,0,0,0,52.79-13.73C648.4,775.82,684.83,736,685.7,647.71V622.3"/><path class="cls-5" d="M230.9,588.31a14.51,14.51,0,0,1,.24-2.75c.73-4.43,3.38-7.79,6.33-11.36,3.8-4.58,7.57-9.16,11.37-13.71,21.19-25.29,41.88-51,63.13-76.23,5.21-6.21,10.57-12.29,16.26-18.06,19.94-20.25,43-38,68.25-51.19,21.76-11.29,44.88-21.15,69.15-25.43a123.07,123.07,0,0,1,28.4-1.85l.32,0a92.92,92.92,0,0,1,27.72,5.8c11.15,4.23,21.89,9.63,29.58,18.57a42.64,42.64,0,0,1,4.5,6.28c5.79,9.81,9.76,20.3,13.82,30.88,19.48,51,55,96.17,106.22,117.71h0c.9.41,1.8.78,2.72,1.14.34.15.69.27,1,.39.87.37,1.77.69,2.7,1"/><path class="cls-5" d="M760,583.52a47.11,47.11,0,0,1,0,87.09"/><path class="cls-5" d="M428.85,839.18H241.63a96.52,96.52,0,0,1,93.61-72.94h76.55a17.06,17.06,0,0,1,17.06,17.06v55.88"/><polyline class="cls-5" points="241.63 839.18 428.85 839.18 648.37 839.18"/><path class="cls-5" d="M699.1,577.26h54.32a6.53,6.53,0,0,1,6.53,6.53v87.5a6.52,6.52,0,0,1-6.53,6.52h0A11.44,11.44,0,0,0,742,689.25h0v46a35.73,35.73,0,0,0,25.9,34.53,96.68,96.68,0,0,1,67.72,69.43H648.37A96.53,96.53,0,0,1,742,766.24"/><path class="cls-5" d="M404.46,839.18a72.6,72.6,0,1,1-138.44,0"/><path class="cls-5" d="M811.21,839.18a72.61,72.61,0,1,1-138.45,0"/><circle cx="741.98" cy="861.12" r="12.2"/><circle cx="335.24" cy="861.12" r="12.2"/><line class="cls-5" x1="460.2" y1="723.14" x2="477.5" y2="723.14"/><path class="cls-3" d="M662.37,838.77c-.07.27-.1.41-.1.41h-13.9a1.93,1.93,0,0,0,.12-.41Z"/><path class="cls-5" d="M280.31,927.75a87.25,87.25,0,0,1-12.83-13.09"/><path class="cls-5" d="M421.58,861.11A85.85,85.85,0,0,1,407.75,908"/><path class="cls-5" d="M660.73,887a86.35,86.35,0,0,1-3.24-18"/><path class="cls-5" d="M826.23,861.11A85.85,85.85,0,0,1,812.4,908"/><path class="cls-5" d="M257.43,898.62a86,86,0,0,1-8.54-37.51"/><path class="cls-5" d="M448.44,381.38s-50.11,7.26-103.94,52.7"/></svg>